<svg width="992" height="771" viewBox="0 0 992 771" fill="none" xmlns="http://www.w3.org/2000/svg">
<g clip-path="url(#clip0)">
<path d="M289.581 0L131.727 85.5022C134.427 90.1493 136.166 95.2908 136.842 100.622C137.517 105.954 137.116 111.367 135.661 116.54C134.207 121.714 131.729 126.543 128.374 130.741C125.019 134.939 120.855 138.421 116.13 140.981C111.404 143.54 106.213 145.125 100.864 145.642C95.5146 146.158 90.1161 145.596 84.9882 143.988C79.8603 142.38 75.1074 139.758 71.0111 136.28C66.9148 132.801 63.5584 128.536 61.1408 123.736L7.31738 152.89L146.737 410.284L429 257.394L289.581 0Z" fill="#F2F2F2"/>
<path d="M94.6035 138.255C112.601 138.255 127.191 123.665 127.191 105.668C127.191 87.6704 112.601 73.0806 94.6035 73.0806C76.606 73.0806 62.0161 87.6704 62.0161 105.668C62.0161 123.665 76.606 138.255 94.6035 138.255Z" fill="#F25040"/>
<path d="M685.955 689.064L856.627 633.393C854.809 628.336 854.024 622.965 854.32 617.599C854.616 612.233 855.985 606.981 858.348 602.154C860.71 597.327 864.018 593.024 868.074 589.499C872.131 585.973 876.853 583.298 881.962 581.632C887.072 579.965 892.463 579.341 897.818 579.796C903.173 580.252 908.382 581.778 913.136 584.283C917.89 586.788 922.093 590.223 925.496 594.382C928.899 598.542 931.432 603.342 932.946 608.499L991.14 589.516L900.363 311.22L595.178 410.767L685.955 689.064Z" fill="#F2F2F2"/>
<path d="M896.776 652.831C914.773 652.831 929.363 638.241 929.363 620.244C929.363 602.246 914.773 587.656 896.776 587.656C878.778 587.656 864.188 602.246 864.188 620.244C864.188 638.241 878.778 652.831 896.776 652.831Z" fill="#F25040"/>
<path d="M903.5 152.678H115.5V510.678H903.5V152.678Z" fill="#3F3D56"/>
<path d="M890.5 165.678H128.5V490.678H890.5V165.678Z" fill="white"/>
<path d="M813 475.178H739V500.178H813V475.178Z" fill="#3F3D56"/>
<path d="M735 494.178H681V501.178H735V494.178Z" fill="#F25040"/>
<path d="M190.5 288.678H481.5L526.616 310.657L598.5 345.678L645.5 257.678H778.5" stroke="#3F3D56" stroke-width="2" stroke-miterlimit="10"/>
<path d="M304.925 288.678L326.5 339.678H379.5" stroke="#3F3D56" stroke-width="2" stroke-miterlimit="10"/>
<path d="M385.807 288.678L459.5 248.678H511.5" stroke="#3F3D56" stroke-width="2" stroke-miterlimit="10"/>
<path d="M304.5 297.678C309.471 297.678 313.5 293.648 313.5 288.678C313.5 283.707 309.471 279.678 304.5 279.678C299.529 279.678 295.5 283.707 295.5 288.678C295.5 293.648 299.529 297.678 304.5 297.678Z" fill="#F25040"/>
<path d="M388.5 297.678C393.471 297.678 397.5 293.648 397.5 288.678C397.5 283.707 393.471 279.678 388.5 279.678C383.529 279.678 379.5 283.707 379.5 288.678C379.5 293.648 383.529 297.678 388.5 297.678Z" fill="#F25040"/>
<path d="M526.5 310.678L532.5 399.678H584.5" stroke="#3F3D56" stroke-width="2" stroke-miterlimit="10"/>
<path d="M626.65 292.971L569.5 248.678H623.5" stroke="#3F3D56" stroke-width="2" stroke-miterlimit="10"/>
<path d="M721.051 257.678L776.5 301.678H828.5" stroke="#3F3D56" stroke-width="2" stroke-miterlimit="10"/>
<path d="M526.5 319.678C531.471 319.678 535.5 315.648 535.5 310.678C535.5 305.707 531.471 301.678 526.5 301.678C521.529 301.678 517.5 305.707 517.5 310.678C517.5 315.648 521.529 319.678 526.5 319.678Z" fill="#F25040"/>
<path d="M720.5 266.678C725.471 266.678 729.5 262.648 729.5 257.678C729.5 252.707 725.471 248.678 720.5 248.678C715.529 248.678 711.5 252.707 711.5 257.678C711.5 262.648 715.529 266.678 720.5 266.678Z" fill="#F25040"/>
<path d="M626.5 301.678C631.471 301.678 635.5 297.648 635.5 292.678C635.5 287.707 631.471 283.678 626.5 283.678C621.529 283.678 617.5 287.707 617.5 292.678C617.5 297.648 621.529 301.678 626.5 301.678Z" fill="#F25040"/>
<path d="M327.5 347.678H379.5" stroke="#3F3D56" stroke-width="2" stroke-miterlimit="10"/>
<path d="M809.542 90.2853C817.691 90.2853 824.298 83.679 824.298 75.5297C824.298 67.3805 817.691 60.7742 809.542 60.7742C801.393 60.7742 794.787 67.3805 794.787 75.5297C794.787 83.679 801.393 90.2853 809.542 90.2853Z" stroke="#3846D4" stroke-width="2" stroke-miterlimit="10"/>
<path d="M152 770.178C235.947 770.178 304 757.642 304 742.178C304 726.714 235.947 714.178 152 714.178C68.0527 714.178 0 726.714 0 742.178C0 757.642 68.0527 770.178 152 770.178Z" fill="#F2F2F2" fill-opacity="0.25"/>
<path d="M809.692 533.647H24.2397V536.432H809.692V533.647Z" fill="#3F3D56"/>
<path d="M52.6849 521.467H19V555.152H52.6849V521.467Z" fill="#3846D4"/>
<path d="M73.1365 535.903H32.2334V495H73.1365V535.903ZM34.0118 534.125H71.3581V496.778H34.0118V534.125Z" fill="#3F3D56"/>
<path d="M256.389 493.658L229.272 507.339L231.027 510.834L258.143 497.153L256.389 493.658Z" fill="#F25040"/>
<path d="M251.98 468.211L250.762 475.521C250.762 475.521 252.589 526.078 239.189 510.24C225.788 494.403 234.925 473.084 234.925 473.084L238.58 466.993L251.98 468.211Z" fill="#DA7E57"/>
<path d="M174.013 234.31C174.013 234.31 171.577 259.893 170.359 261.111C169.14 262.33 188.632 285.476 188.632 285.476L205.687 269.639C205.687 269.639 204.469 246.493 208.124 241.62C211.778 236.747 174.013 234.31 174.013 234.31Z" fill="#DA7E57"/>
<path opacity="0.1" d="M174.013 234.31C174.013 234.31 171.577 259.893 170.359 261.111C169.14 262.33 188.632 285.476 188.632 285.476L205.687 269.639C205.687 269.639 204.469 246.493 208.124 241.62C211.778 236.747 174.013 234.31 174.013 234.31Z" fill="black"/>
<path d="M128.939 700.894V722.822L120.411 724.041L108.229 720.386L111.883 697.239L128.939 700.894Z" fill="#3F3D56"/>
<path d="M117.975 711.858C117.975 711.858 114.32 702.112 108.229 703.33C102.138 704.549 100.919 711.858 100.919 711.858C100.919 711.858 96.0465 730.132 88.7371 736.223C81.4276 742.314 74.1182 758.151 88.7371 760.588C103.356 763.024 115.538 756.933 115.538 755.715C115.538 754.496 119.193 747.187 125.284 745.969C131.375 744.75 136.248 743.532 136.248 738.659C136.248 733.786 132.593 728.913 132.593 728.913C132.593 728.913 131.375 705.805 128.939 708.832C127.254 711.223 126.016 713.899 125.284 716.731L117.975 711.858Z" fill="#2F2E41"/>
<path d="M181.323 689.93L176.45 708.203L188.632 710.64L194.723 704.549L195.941 688.712L181.323 689.93Z" fill="#3F3D56"/>
<path d="M180.104 705.767C180.104 705.767 184.977 702.112 187.414 702.112H191.068C191.068 702.112 191.068 693.585 197.16 693.585C203.251 693.585 202.032 699.676 202.032 699.676C202.032 699.676 215.433 720.386 219.088 724.041C222.742 727.695 242.234 738.659 226.397 743.532C210.56 748.405 199.596 748.405 192.287 739.878C192.287 739.878 184.977 736.223 180.104 736.223C175.231 736.223 169.14 733.786 169.14 730.132C169.14 726.477 172.795 719.168 172.795 719.168C172.795 719.168 175.231 697.239 176.45 699.676C177.668 702.112 180.104 705.767 180.104 705.767Z" fill="#2F2E41"/>
<path d="M127.72 409.736V449.938C127.72 449.938 114.32 527.905 114.32 553.488C114.32 579.071 93.6099 700.894 103.356 703.331C113.102 705.767 136.248 709.422 137.466 705.767C138.685 702.112 147.212 586.38 148.43 585.162C149.649 583.944 175.232 487.703 175.232 487.703L180.105 488.921L182.541 598.562C182.541 598.562 170.359 697.239 176.45 697.239C182.541 697.239 208.124 696.021 208.124 688.712C208.124 681.402 221.525 546.178 221.525 546.178C221.525 546.178 237.362 438.974 231.27 428.01C225.179 417.046 225.179 410.954 225.179 410.954L127.72 409.736Z" fill="#2F2E41"/>
<path d="M194.114 253.193C207.57 253.193 218.479 242.285 218.479 228.828C218.479 215.372 207.57 204.464 194.114 204.464C180.658 204.464 169.75 215.372 169.75 228.828C169.75 242.285 180.658 253.193 194.114 253.193Z" fill="#DA7E57"/>
<path d="M188.632 270.857C188.632 270.857 173.404 258.066 172.186 253.193C172.186 253.193 164.267 261.112 164.267 262.33C164.267 263.548 130.157 267.203 121.629 276.949C113.101 286.694 105.792 307.404 105.792 307.404L126.502 346.388C126.502 346.388 127.72 368.316 127.72 370.753C127.72 373.189 121.629 412.173 124.066 413.391C126.502 414.609 150.867 426.791 171.577 424.355C192.287 421.918 212.997 418.264 219.088 418.264C225.179 418.264 230.052 420.7 230.052 418.264C230.052 415.827 226.397 410.954 226.397 408.518C226.397 406.081 225.179 399.99 225.179 396.336C225.179 392.681 222.743 386.59 222.743 381.717C222.743 376.844 249.544 311.059 249.544 311.059C249.544 311.059 248.325 290.349 228.834 280.603C209.342 270.857 206.905 267.203 206.905 267.203C206.905 267.203 206.526 259.893 205.497 259.893C204.469 259.893 200.814 270.857 191.068 272.076L188.632 270.857Z" fill="#3846D4"/>
<path d="M122.847 432.883L131.375 446.283L153.303 441.41L137.466 423.137L122.847 432.883Z" fill="#DA7E57"/>
<path d="M242.234 301.313L249.544 311.059C249.544 311.059 264.162 381.717 261.726 407.3C259.29 432.883 256.853 452.374 256.853 452.374C256.853 452.374 261.726 470.648 258.071 470.648C254.417 470.648 232.488 471.866 232.488 468.211C232.488 464.557 234.925 441.41 234.925 441.41L228.834 387.808L215.433 369.534L242.234 301.313Z" fill="#3846D4"/>
<path d="M177.565 217C179.059 216.367 180.785 216.88 182.385 216.61C184.263 216.293 185.944 214.901 187.84 215.077C188.739 215.244 189.612 215.527 190.438 215.92C190.852 216.115 191.301 216.224 191.758 216.24C192.216 216.256 192.671 216.18 193.098 216.016C193.302 215.921 193.482 215.783 193.625 215.61C193.768 215.437 193.872 215.235 193.927 215.017C193.982 214.8 193.989 214.573 193.945 214.353C193.902 214.133 193.811 213.925 193.677 213.745C195.282 213.603 196.799 212.95 198.004 211.882C198.245 211.632 198.524 211.423 198.83 211.262C199.188 211.169 199.561 211.15 199.926 211.207C200.291 211.264 200.64 211.395 200.953 211.593L203.74 212.878C204.368 213.1 204.921 213.495 205.333 214.017C205.665 214.534 205.73 215.23 206.199 215.625C206.799 216.13 207.694 215.883 208.477 215.933C209.187 216.002 209.847 216.329 210.331 216.853C210.816 217.376 211.092 218.059 211.106 218.773C211.095 219.591 210.798 220.594 211.445 221.095C211.82 221.385 212.353 221.339 212.792 221.517C213.932 221.98 213.936 223.566 213.768 224.784C213.6 226.003 213.683 227.61 214.854 227.985C215.679 228.249 216.522 227.686 217.378 227.56C218.671 227.371 219.867 228.179 221.017 228.798C222.168 229.416 223.697 229.834 224.694 228.99C225.622 228.205 225.562 226.768 225.307 225.58C224.941 223.876 224.339 222.231 223.52 220.693C223.216 220.24 223.038 219.716 223.001 219.172C223.071 218.789 223.221 218.426 223.441 218.105C223.661 217.785 223.947 217.514 224.279 217.312C225.689 216.198 227.311 215.075 227.767 213.337C228.102 212.062 227.725 210.716 227.755 209.397C227.79 207.793 228.428 206.195 228.129 204.619C227.586 201.76 224.405 200.385 222.352 198.324C219.531 195.492 218.615 190.963 215.285 188.751C212.621 186.982 209.136 187.193 206.103 186.181C202.77 185.069 200.088 182.514 196.801 181.274C195.007 180.612 193.088 180.356 191.183 180.523C189.278 180.69 187.434 181.277 185.782 182.241C184.801 182.968 183.706 183.527 182.542 183.896C181.562 184.009 180.571 183.998 179.594 183.861C177.651 183.761 175.715 184.161 173.97 185.022C173.303 185.289 172.747 185.776 172.395 186.403C171.807 187.71 172.662 189.754 171.371 190.379C170.77 190.67 170.06 190.391 169.392 190.406C168.092 190.434 167.093 191.565 166.475 192.708C165.992 193.917 165.3 195.03 164.43 195.998C162.842 197.389 159.957 197.619 159.542 199.689C159.534 200.565 159.584 201.441 159.691 202.311C159.571 204.146 157.607 205.54 157.71 207.375C157.828 209.493 160.518 210.527 161.237 212.522C161.785 214.041 161.064 215.683 160.568 217.22C160.073 218.757 159.923 220.726 161.203 221.71C161.706 222.096 162.351 222.254 162.863 222.626C164.188 223.59 164.171 225.534 164.024 227.166C163.939 227.505 163.939 227.859 164.023 228.198C164.107 228.537 164.272 228.85 164.505 229.11C164.724 229.242 164.969 229.327 165.223 229.357C165.477 229.388 165.734 229.364 165.978 229.287C166.773 229.094 167.521 228.741 168.175 228.248C168.829 227.756 169.376 227.135 169.782 226.424C170.208 225.719 170.294 225.097 171.069 224.723C171.595 224.469 172.234 224.696 172.769 224.366C175.316 222.798 174.439 218.324 177.565 217Z" fill="#2F2E41"/>
<path d="M109.447 303.75L105.792 307.404C105.792 307.404 83.864 373.189 91.1733 387.808C98.4827 402.427 113.102 438.974 117.974 437.756C122.847 436.537 139.903 425.573 139.903 424.355C139.903 423.137 119.193 389.026 119.193 389.026C119.193 389.026 116.756 381.717 117.974 380.499C119.193 379.28 119.193 380.499 117.974 378.062C116.756 375.626 116.756 378.062 119.193 375.626C121.629 373.189 121.629 373.189 121.629 371.971C121.629 370.753 128.939 340.297 128.939 340.297L109.447 303.75Z" fill="#3846D4"/>
<path d="M128.329 446.892L155.131 438.365L158.785 446.892L129.548 452.983L128.329 446.892Z" fill="#2F2E41"/>
<path opacity="0.1" d="M128.329 446.892L155.131 438.365L158.785 446.892L129.548 452.983L128.329 446.892Z" fill="black"/>
<path opacity="0.1" d="M164.876 262.939L185.586 279.994L188.023 276.339L164.876 262.939Z" fill="black"/>
<path opacity="0.1" d="M206.296 267.812L191.678 276.339L192.896 279.994L206.296 267.812Z" fill="black"/>
<path d="M728.981 380.548C728.981 388.639 728.981 396.729 728.981 404.82C728.769 405.629 728.942 406.458 728.884 407.286C728.865 407.498 728.942 407.845 728.499 407.633C728.249 407.228 728.287 406.766 728.287 406.323C728.287 397.25 728.287 388.157 728.287 379.084C728.287 378.64 728.249 378.178 728.48 377.774C728.981 377.504 728.865 377.928 728.865 378.14C728.942 378.929 728.769 379.758 728.981 380.548Z" fill="#FEECD4"/>
<path d="M728.981 380.548C728.595 380.008 728.865 379.392 728.788 378.814C728.73 378.429 728.942 377.985 728.595 377.658C728.326 377.427 728.306 377.099 728.306 376.772C728.287 375.423 728.268 374.094 728.306 372.746C728.326 372.399 728.326 372.033 728.711 371.84C729.058 372.457 728.807 373.131 728.884 373.767C728.961 374.422 728.769 375.096 728.981 375.732C728.981 377.33 728.981 378.949 728.981 380.548Z" fill="#FEF0E2"/>
<path d="M728.595 407.71C728.981 407.171 728.711 406.554 728.788 405.976C728.846 405.591 728.634 405.148 728.981 404.82C728.981 405.841 728.981 406.882 728.981 407.903C728.672 408.596 729.135 409.386 728.711 410.06C728.037 409.309 728.21 408.519 728.595 407.71Z" fill="#FEF1E2"/>
<path d="M728.98 375.732C728.537 374.46 728.903 373.15 728.788 371.879C728.749 371.84 728.73 371.782 728.73 371.725C728.73 371.667 728.749 371.648 728.769 371.648C728.846 371.609 728.923 371.609 728.98 371.686C728.98 373.035 728.98 374.383 728.98 375.732Z" fill="#FEF7EF"/>
<path d="M728.981 371.686C728.923 371.686 728.846 371.686 728.788 371.686C728.306 370.53 728.306 369.374 728.788 368.219C728.846 368.219 728.923 368.219 728.981 368.219C728.981 369.374 728.981 370.53 728.981 371.686Z" fill="#FEFBF8"/>
<path d="M728.788 410.022C728.884 409.309 728.576 408.577 728.98 407.903C728.98 408.866 728.98 409.829 728.98 410.792C728.923 410.792 728.865 410.792 728.788 410.792C728.576 410.542 728.557 410.291 728.788 410.022Z" fill="#FEF7EF"/>
<path d="M728.788 410.022C728.788 410.272 728.788 410.542 728.788 410.792C728.73 414.857 728.422 418.883 727.998 422.929C727.709 423.198 727.844 423.564 727.805 423.892C727.805 424.142 727.805 424.412 727.805 424.662C727.555 424.874 727.632 425.163 727.613 425.433C727.613 425.683 727.613 425.934 727.593 426.204C727.382 426.358 727.401 426.57 727.401 426.782C727.343 427.359 727.266 427.937 727.208 428.515C726.996 428.746 726.919 428.997 727.016 429.286C727.016 429.421 727.016 429.536 727.016 429.671C726.842 429.825 726.823 430.037 726.823 430.249C726.823 430.442 726.823 430.634 726.823 430.827C726.707 431 726.476 431.154 726.63 431.405C726.572 431.79 726.495 432.175 726.438 432.561C726.303 432.734 726.091 432.869 726.245 433.139C726.245 433.196 726.245 433.274 726.245 433.331C726.071 433.485 726.052 433.697 726.052 433.909C725.994 434.237 725.917 434.545 725.86 434.872C724.838 434.295 723.856 433.659 722.835 433.081C721.39 432.272 719.964 431.405 718.461 430.538C718.307 433.119 716.496 434.372 714.743 435.604C711.584 437.858 708.058 439.419 704.436 440.748C700.544 442.174 696.537 443.195 692.453 443.888C691.817 444.004 691.181 444.1 690.487 443.984C690.43 443.965 690.564 444.158 690.564 444.023C690.873 444.023 691.2 444.004 690.988 444.485C689.062 444.35 687.135 444.235 685.209 444.1C684.727 443.734 684.187 443.984 683.667 443.907C682.242 444.042 680.854 443.638 679.429 443.715C678.947 443.368 678.408 443.561 677.888 443.522C674.612 443.329 671.337 443.137 668.062 442.944C667.503 442.617 666.906 442.79 666.328 442.751C662.61 442.54 658.872 442.347 655.173 442C654.248 441.904 653.324 441.923 652.399 441.827C650.145 441.615 647.852 441.557 645.559 441.422C645.001 441.095 644.403 441.249 643.825 441.23C640.859 441.153 637.892 440.864 634.944 440.652C634.79 440.632 634.578 440.613 634.52 440.517C634.366 440.305 634.597 440.17 634.713 440.035C636.813 437.858 638.508 435.373 640.107 432.811C642.284 429.324 644.114 425.606 645.174 421.58C645.309 421.407 645.521 421.272 645.367 421.002C646.696 415.917 646.08 410.734 646.08 405.61C646.08 403.414 646.099 401.199 645.925 398.983C645.714 396.383 645.848 393.801 645.733 391.201C645.521 387.02 645.463 382.821 645.347 378.64C645.232 374.422 645.078 370.203 644.943 365.984C644.885 364.154 644.847 362.343 644.789 360.513C645.001 359.762 644.75 358.991 644.77 358.24C644.789 357.488 645.059 357.238 645.81 357.238C648.411 357.257 651.012 357.238 653.613 357.257C662.34 357.277 671.067 357.238 679.776 357.277C680.122 357.315 680.219 357.585 680.277 357.893C680.334 358.182 680.392 358.452 680.469 358.741C680.989 360.551 681.143 360.648 682.974 360.359C683.109 360.34 683.224 360.34 683.359 360.359C685.305 360.725 687.251 361.052 689.254 360.686C690.564 360.455 691.547 359.916 691.778 358.471C691.836 358.066 691.971 357.662 692.337 357.392C692.453 357.334 692.549 357.315 692.664 357.296C704.031 357.277 715.417 357.296 726.784 357.277C727.266 357.277 727.748 357.296 728.229 357.257C728.345 357.219 728.48 357.219 728.595 357.277C728.48 360.937 728.846 364.597 728.807 368.257C728.807 369.413 728.807 370.569 728.807 371.725C728.807 371.782 728.807 371.86 728.807 371.917C728.441 372.36 728.634 372.9 728.634 373.401C728.595 374.826 728.615 376.271 728.615 377.716C728.615 387.733 728.615 397.75 728.615 407.768C728.692 408.481 728.383 409.27 728.788 410.022Z" fill="#FFE3DD"/>
<path d="M691.027 444.485C691.008 443.946 690.449 444.254 690.237 443.984C696.768 443.06 703.049 441.384 709.041 438.59C711.777 437.319 714.397 435.874 716.632 433.832C717.691 432.85 718.481 431.732 718.115 430.056C720.543 431.463 722.874 432.792 725.166 434.16C725.455 434.333 725.648 434.641 725.898 434.892C725.031 438.186 723.914 441.384 721.853 444.158C721.429 444.736 720.947 445.237 720.369 445.66C719.656 446.18 718.943 446.412 717.98 446.315C715.572 446.065 713.144 446.046 710.717 445.872C707.442 445.641 704.167 445.333 700.891 445.14C698.753 445.025 696.614 444.832 694.495 444.755C693.32 444.678 692.183 444.447 691.027 444.485Z" fill="#FFAC9B"/>
<path d="M685.999 353.347C686.519 353.347 687.058 353.366 687.578 353.366C689.331 353.982 690.025 354.984 690.083 357.045C690.141 357.122 690.179 357.238 690.16 357.334C689.813 358.914 688.754 359.781 687.232 360.108C686.808 360.205 686.268 360.378 685.979 359.781C686.865 359.338 687.501 358.702 687.443 357.643C687.405 356.679 686.981 355.928 686.095 355.446C685.652 355.215 685.189 355.158 684.688 355.177C684.38 355.177 684.053 355.331 683.764 355.119C684.207 354.156 684.977 353.578 685.999 353.347Z" fill="#F25040"/>
<path d="M683.783 355.119C685.806 354.503 687.29 355.35 687.694 357.334C687.945 358.529 687.135 359.685 685.999 359.742C685.71 359.993 685.421 359.858 685.132 359.723C684.072 359.184 683.494 358.298 683.244 357.142C683.128 356.641 683.147 356.198 683.494 355.812C683.591 355.601 683.687 355.369 683.783 355.119Z" fill="#FF3E2A"/>
<path d="M683.494 355.851C683.224 357.527 683.841 358.76 685.305 359.588C684.862 360.397 684.014 360.32 683.282 360.474C680.989 361.033 680.989 361.033 680.18 358.721C680.026 358.278 679.988 357.874 680.026 357.411C679.988 357.373 679.968 357.334 679.968 357.277C679.968 357.219 679.968 357.2 679.988 357.2C680.065 357.123 680.18 357.084 680.277 357.045C681.355 356.66 682.415 356.256 683.494 355.851Z" fill="#F25040"/>
<path d="M680.122 357.257C680.084 357.315 680.064 357.373 680.026 357.431C668.775 357.431 657.523 357.431 646.253 357.431C644.981 357.431 645.001 357.431 644.962 358.741C644.962 359.338 645.174 359.954 644.789 360.513C644.731 359.993 644.673 359.473 644.615 358.972C644.654 358.875 644.692 358.798 644.692 358.702C644.769 357.161 644.769 357.161 646.368 357.161C657.234 357.161 668.1 357.161 678.986 357.161C679.371 357.142 679.756 357.045 680.122 357.257Z" fill="#FEF4D9"/>
<path d="M680.123 357.257C668.621 357.257 657.1 357.257 645.598 357.219C644.962 357.219 644.731 357.431 644.789 358.047C644.808 358.355 644.905 358.702 644.616 358.953C644.596 357.026 644.596 357.026 646.523 357.026C657.37 357.026 668.197 357.026 679.044 357.026C679.468 357.026 679.872 357.045 680.296 357.045C680.219 357.122 680.161 357.2 680.123 357.257Z" fill="#FEEDDA"/>
<path d="M643.825 441.23C644.442 441.037 645.058 440.709 645.559 441.422C644.981 441.384 644.384 441.538 643.825 441.23Z" fill="#FEF2DD"/>
<path d="M666.367 442.771C666.983 442.578 667.6 442.27 668.101 442.963C667.523 442.925 666.925 443.079 666.367 442.771Z" fill="#FEF3DE"/>
<path d="M677.926 443.541C678.369 443.175 678.889 443.387 679.371 443.368C679.621 443.368 679.486 443.58 679.467 443.734C678.947 443.715 678.407 443.83 677.926 443.541Z" fill="#FEF2DD"/>
<path d="M683.706 443.927C684.245 443.715 684.804 443.406 685.247 444.119C684.727 444.042 684.188 444.312 683.706 443.927Z" fill="#FEF1DC"/>
<path d="M727.825 423.892C727.555 423.507 727.42 423.14 728.017 422.929C727.979 423.256 728.133 423.622 727.825 423.892Z" fill="#FEF1DC"/>
<path d="M727.632 425.433C727.362 425.086 727.285 424.797 727.825 424.662C727.805 424.932 727.902 425.221 727.632 425.433Z" fill="#FEF4DF"/>
<path d="M727.439 426.781C727.228 426.627 727.208 426.415 727.305 426.204C727.324 426.165 727.516 426.204 727.632 426.204C727.632 426.415 727.671 426.647 727.439 426.781Z" fill="#FEF1DC"/>
<path d="M727.054 429.286C726.784 428.939 726.707 428.65 727.247 428.515C727.285 428.804 727.189 429.055 727.054 429.286Z" fill="#FEF1DB"/>
<path d="M726.862 430.249C726.534 429.941 726.65 429.748 727.054 429.671C727.054 429.883 727.093 430.114 726.862 430.249Z" fill="#FEF3E0"/>
<path d="M726.091 433.909C725.782 433.601 725.879 433.408 726.283 433.331C726.283 433.543 726.322 433.774 726.091 433.909Z" fill="#FEF2DD"/>
<path d="M645.366 421.002C645.675 421.31 645.578 421.503 645.174 421.58C645.232 421.387 645.309 421.195 645.366 421.002Z" fill="#FEF2DE"/>
<path d="M726.669 431.405C726.36 431.097 726.457 430.904 726.861 430.827C726.784 431.02 726.726 431.212 726.669 431.405Z" fill="#FEF3E0"/>
<path d="M726.283 433.139C725.975 432.83 726.072 432.638 726.476 432.561C726.399 432.753 726.341 432.946 726.283 433.139Z" fill="#FEF2DB"/>
<path d="M728.595 357.238C728.538 357.238 728.48 357.238 728.403 357.238C728.191 357.373 727.96 357.334 727.748 357.334C716.015 357.334 704.263 357.354 692.53 357.334C692.375 357.296 692.318 357.219 692.376 357.065C704.147 357.065 715.918 357.065 727.69 357.065C727.998 357.045 728.345 356.93 728.595 357.238Z" fill="#FEEDDA"/>
<path d="M692.375 357.045C692.375 357.103 692.375 357.161 692.375 357.238C692.433 357.277 692.472 357.315 692.433 357.373C692.414 357.411 692.395 357.431 692.375 357.431C691.874 357.777 691.296 357.758 690.718 357.7C690.429 357.662 690.063 357.662 690.044 357.219C690.025 357.161 690.044 357.103 690.063 357.045C690.834 357.045 691.605 357.045 692.375 357.045Z" fill="#FEE7CE"/>
<path d="M713.703 384.015C710.582 383.765 707.48 383.514 704.398 383.283C702.452 383.129 700.506 383.013 698.56 382.879C695.15 382.647 691.74 382.455 688.33 382.127C686.076 381.915 683.802 381.858 681.529 381.704C678.369 381.472 675.229 381.203 672.069 380.971C669.989 380.817 667.927 380.702 665.847 380.548C663.034 380.355 660.24 380.143 657.427 379.97C656.984 379.95 656.907 379.7 656.907 379.334C656.907 378.968 657.061 378.814 657.427 378.814C657.89 378.795 658.314 378.929 658.757 378.968C660.799 379.122 662.841 379.238 664.883 379.392C668.158 379.623 671.434 379.931 674.728 380.124C676.713 380.239 678.678 380.394 680.662 380.548C684.111 380.817 687.54 381.068 690.989 381.299C693.223 381.453 695.458 381.549 697.693 381.723C700.776 381.954 703.877 382.224 706.96 382.455C709.195 382.628 711.43 382.724 713.664 382.879C714.069 382.898 714.705 382.628 714.705 383.457C714.724 384.304 714.069 383.919 713.703 384.015Z" fill="#FFC8BC"/>
<path d="M705.438 391.952C702.124 391.682 698.811 391.413 695.497 391.162C693.493 391.008 691.47 390.892 689.467 390.758C686.153 390.507 682.839 390.257 679.525 390.006C677.541 389.852 675.576 389.737 673.592 389.602C670.143 389.351 666.714 389.062 663.265 388.85C661.377 388.735 659.508 388.619 657.62 388.446C657.196 388.407 656.83 388.407 656.907 387.829C656.965 387.29 657.293 387.329 657.736 387.367C659.836 387.56 661.936 387.695 664.036 387.849C667.407 388.099 670.779 388.35 674.17 388.6C676.212 388.754 678.254 388.87 680.296 389.005C683.571 389.236 686.846 389.505 690.141 389.737C692.279 389.891 694.418 390.006 696.556 390.16C699.774 390.392 702.991 390.642 706.209 390.892C706.633 390.931 707.076 390.892 706.999 391.547C706.902 392.222 706.44 391.856 706.112 391.894C705.881 391.913 705.669 391.894 705.438 391.894C705.457 391.933 705.438 391.952 705.438 391.952Z" fill="#FFC8BC"/>
<path d="M660.355 397.712C663.977 397.847 667.58 397.924 671.202 398.097C674.342 398.271 677.464 398.348 680.604 398.483C685.305 398.694 690.006 398.887 694.706 399.06C697.23 399.157 699.754 399.349 702.278 399.407C702.721 399.407 703.01 399.484 702.991 400.043C702.972 400.563 702.644 400.582 702.278 400.563C698.637 400.39 694.995 400.197 691.354 400.024C691.065 400.004 690.776 400.004 690.487 400.004C686.422 399.87 682.357 399.773 678.292 399.581C675.344 399.446 672.416 399.311 669.468 399.195C666.174 399.06 662.879 398.849 659.585 398.81C659.18 398.81 658.756 398.675 658.352 398.656C658.024 398.637 657.87 398.483 657.928 398.174C657.966 397.905 658.005 397.616 658.429 397.635C659.065 397.673 659.72 397.654 660.355 397.654C660.355 397.673 660.355 397.693 660.355 397.712Z" fill="#FFC8BC"/>
<path d="M699.928 410.6C696.036 410.253 692.51 409.945 688.965 409.656C687 409.502 685.016 409.405 683.031 409.232C680.199 409.001 677.367 408.712 674.535 408.519C672.782 408.404 671.029 408.269 669.276 408.095C666.135 407.826 662.976 407.575 659.835 407.325C659.45 407.286 659.065 407.306 658.679 407.306C658.333 407.286 657.909 407.325 657.909 406.805C657.909 406.285 658.255 406.111 658.756 406.15C659.777 406.227 660.799 406.285 661.82 406.381C663.977 406.554 666.135 406.747 668.312 406.94C671.144 407.19 673.976 407.44 676.809 407.672C678.619 407.826 680.43 407.941 682.261 408.095C685.285 408.346 688.31 408.596 691.316 408.847C693.184 409.001 695.073 409.116 696.961 409.251C697.847 409.309 698.752 409.367 699.639 409.444C700.005 409.482 700.544 409.27 700.583 409.925C700.602 410.484 700.351 410.619 699.928 410.6Z" fill="#FFC8BC"/>
<path d="M690.044 357.219C690.776 357.681 691.605 357.315 692.375 357.45C692.241 357.835 692.067 358.22 691.99 358.625C691.797 359.8 691.123 360.494 689.967 360.763C687.713 361.303 685.478 361.149 683.263 360.474C683.937 360.185 684.611 359.877 685.286 359.588C685.498 359.762 685.748 359.762 685.979 359.762C687.405 360.147 688.908 359.492 689.601 358.163C689.794 357.854 689.909 357.527 690.044 357.219Z" fill="#FEE0BE"/>
<path d="M692.375 357.431C692.375 357.373 692.375 357.296 692.375 357.238C704.378 357.238 716.4 357.238 728.403 357.238C728.075 357.566 727.671 357.431 727.305 357.431C715.668 357.431 704.012 357.431 692.375 357.431Z" fill="#FEF4D9"/>
</g>
<defs>
<clipPath id="clip0">
<rect width="991.14" height="770.178" fill="white"/>
</clipPath>
</defs>
</svg>
