<svg width="24" height="24" viewBox="0 0 24 24" fill="none">
  <path
  d="M4.5 14.4C4.5 18.372 7.8625 21.6 12 21.6C16.1375 21.6 19.5 18.372 19.5 14.4C19.5 10.428 16.1375 7.2 12 7.2V12L5.75 6L12 0V4.8C17.525 4.8 22 9.096 22 14.4C22 19.704 17.525 24 12 24C6.475 24 2 19.704 2 14.4H4.5Z"
  fill="#fff"></path>
  <path
  d="M10.571 17.4338V12.7368H10.4698L8.47852 13.4298V14.1888L9.61477 13.8478V17.4338H10.571Z"
  fill="#E1E1E6"></path>
  <path
  d="M12.1348 14.6841V15.4981C12.1348 17.5881 13.6085 17.5001 13.7548 17.5001C13.9123 17.5001 15.3748 17.5991 15.3748 15.4981V14.6841C15.3748 12.5941 13.901 12.6821 13.7548 12.6821C13.5973 12.6821 12.1348 12.5831 12.1348 14.6841ZM14.4298 14.5521V15.6191C14.4298 16.4661 14.1935 16.7521 13.766 16.7521C13.3385 16.7521 13.091 16.4661 13.091 15.6191V14.5521C13.091 13.7271 13.3385 13.4411 13.7548 13.4411C14.1823 13.4301 14.4298 13.7271 14.4298 14.5521Z"
  fill="#E1E1E6"></path>
</svg>
