<svg width="24" height="24" viewBox="0 0 24 24" fill="none">
  <path
    d="M19.5 14.4C19.5 18.372 16.1375 21.6 12 21.6C7.8625 21.6 4.5 18.372 4.5 14.4C4.5 10.428 7.8625 7.2 12 7.2V12L18.25 6L12 0V4.8C6.475 4.8 2 9.096 2 14.4C2 19.704 6.475 24 12 24C17.525 24 22 19.704 22 14.4H19.5Z"
    fill="#fff"></path>
  <path
    d="M10.7175 17.4338V12.7368H10.6163L8.625 13.4298V14.1888L9.76125 13.8478V17.4338H10.7175Z"
    fill="#E1E1E6"></path>
  <path
    d="M12.2812 14.6841V15.4981C12.2812 17.5881 13.755 17.5001 13.9012 17.5001C14.0587 17.5001 15.5213 17.5991 15.5213 15.4981V14.6841C15.5213 12.5941 14.0475 12.6821 13.9012 12.6821C13.7437 12.6821 12.2812 12.5831 12.2812 14.6841ZM14.5763 14.5521V15.6191C14.5763 16.4661 14.34 16.7521 13.9125 16.7521C13.485 16.7521 13.2375 16.4661 13.2375 15.6191V14.5521C13.2375 13.7271 13.485 13.4411 13.9012 13.4411C14.3287 13.4301 14.5763 13.7271 14.5763 14.5521Z"
    fill="#E1E1E6"></path>
</svg>
