<svg width="80" height="80" viewBox="0 0 80 80" fill="none" xmlns="http://www.w3.org/2000/svg">
<path d="M61.4179 0H17.5608C5.89 0 0 5.71382 0 17.0313V77.603C0 79.0866 0.790044 80 2.49217 80H15.7495C17.336 80 18.3573 79.0866 18.3573 77.603V75.3033C18.3573 69.6931 20.7017 66.6354 26.5275 66.0458H61.4179C74.2192 66.0458 80 60.4486 80 48.2177V17.8282C80 5.59722 74.2192 0 61.4179 0ZM61.662 43.0739C61.662 49.7077 60.1718 51.0746 52.3484 51.0746H33.7664C25.9494 51.0746 20.9587 53.7048 18.3509 58.8485V21.4884C18.3509 16.3446 19.5969 14.9713 25.8274 14.9713H52.3484C60.1718 14.9713 61.662 16.3446 61.662 22.9719V43.0739Z" fill="white"/>
</svg>
